<svg xmlns="http://www.w3.org/2000/svg" xmlns:xlink="http://www.w3.org/1999/xlink" width="500" zoomAndPan="magnify" viewBox="0 0 375 374.999991" height="500" preserveAspectRatio="xMidYMid meet" version="1.2"><defs><clipPath id="2f51e6a77c"><path d="M 30.691406 15.65625 L 344.191406 15.65625 L 344.191406 359.15625 L 30.691406 359.15625 Z M 30.691406 15.65625 "/></clipPath></defs><g id="c6b9a653fc"><path style=" stroke:none;fill-rule:nonzero;fill:#000000;fill-opacity:1;" d="M 166.472656 231.765625 C 166.472656 240.929688 159.039062 248.359375 149.875 248.359375 C 140.707031 248.359375 133.277344 240.929688 133.277344 231.765625 L 133.277344 204.003906 C 133.277344 194.832031 140.710938 187.40625 149.875 187.40625 C 159.039062 187.40625 166.472656 194.839844 166.472656 204.003906 Z M 242.734375 204.003906 C 242.734375 194.832031 235.300781 187.40625 226.132812 187.40625 C 216.960938 187.40625 209.535156 194.839844 209.535156 204.003906 L 209.535156 231.765625 C 209.535156 240.929688 216.96875 248.359375 226.132812 248.359375 C 235.300781 248.359375 242.734375 240.929688 242.734375 231.765625 Z M 242.734375 204.003906 "/><g clip-rule="nonzero" clip-path="url(#2f51e6a77c)"><path style=" stroke:none;fill-rule:nonzero;fill:#000000;fill-opacity:1;" d="M 344.117188 228.875 L 344.117188 268.035156 C 344.117188 282.566406 332.332031 294.347656 317.796875 294.347656 C 312.242188 294.347656 307.097656 292.621094 302.855469 289.683594 C 281.089844 330.925781 237.789062 359.109375 188.003906 359.109375 C 137.957031 359.109375 94.472656 330.628906 72.820312 289.035156 C 68.414062 292.355469 62.949219 294.347656 57.003906 294.347656 C 42.476562 294.347656 30.691406 282.566406 30.691406 268.035156 L 30.691406 228.875 C 30.691406 214.339844 42.476562 202.558594 57.007812 202.558594 C 58.332031 202.558594 59.625 202.6875 60.898438 202.878906 C 68.777344 164.539062 93.601562 131.5625 129.558594 113.394531 L 145.738281 145.429688 C 113.886719 161.519531 94.09375 193.660156 94.09375 229.316406 C 94.09375 281.097656 136.222656 323.222656 188.003906 323.222656 C 239.785156 323.222656 281.910156 281.097656 281.910156 229.316406 C 281.910156 181.898438 246.578125 142.601562 200.859375 136.3125 C 200.859375 136.304688 200.867188 136.292969 200.867188 136.292969 C 200.867188 136.292969 200.796875 136.292969 200.691406 136.285156 C 199.390625 136.109375 198.078125 135.953125 196.761719 135.832031 C 188.378906 134.242188 170.058594 127.101562 170.058594 95.035156 L 170.058594 69.527344 L 140.75 69.527344 L 188.003906 15.703125 L 235.257812 69.53125 L 205.949219 69.53125 L 205.949219 89.550781 C 206.320312 93.734375 208.140625 100.15625 215.390625 102.464844 C 216.433594 102.6875 217.472656 102.914062 218.507812 103.164062 C 218.582031 103.171875 218.644531 103.191406 218.71875 103.203125 L 218.714844 103.214844 C 267.015625 114.980469 304.8125 153.835938 315.039062 202.710938 C 315.949219 202.617188 316.871094 202.566406 317.800781 202.566406 C 332.332031 202.558594 344.117188 214.34375 344.117188 228.875 Z M 344.117188 228.875 "/></g></g></svg>